<mxfile host="Electron" modified="2023-08-31T01:06:23.644Z" agent="Mozilla/5.0 (Windows NT 10.0; Win64; x64) AppleWebKit/537.36 (KHTML, like Gecko) draw.io/21.6.1 Chrome/112.0.5615.204 Electron/24.6.1 Safari/537.36" etag="ggyqU-EXAfdaMVGRBuCU" version="21.6.1" type="device" pages="2">
  <diagram name="Page-1" id="OsEInjWhRIyB-0BRaalW">
    <mxGraphModel dx="1036" dy="606" grid="1" gridSize="10" guides="1" tooltips="1" connect="1" arrows="1" fold="1" page="1" pageScale="1" pageWidth="850" pageHeight="1100" math="0" shadow="0">
      <root>
        <mxCell id="0" />
        <mxCell id="1" parent="0" />
        <mxCell id="66rpXsQytvQjwjU0PG5K-5" style="edgeStyle=orthogonalEdgeStyle;rounded=0;orthogonalLoop=1;jettySize=auto;html=1;exitX=1;exitY=0.5;exitDx=0;exitDy=0;entryX=0;entryY=0.5;entryDx=0;entryDy=0;" parent="1" source="66rpXsQytvQjwjU0PG5K-1" target="66rpXsQytvQjwjU0PG5K-3" edge="1">
          <mxGeometry relative="1" as="geometry" />
        </mxCell>
        <mxCell id="66rpXsQytvQjwjU0PG5K-1" value="" style="ellipse;html=1;shape=startState;fillColor=#000000;strokeColor=#ff0000;" parent="1" vertex="1">
          <mxGeometry x="160" y="191" width="30" height="30" as="geometry" />
        </mxCell>
        <mxCell id="66rpXsQytvQjwjU0PG5K-9" style="edgeStyle=orthogonalEdgeStyle;rounded=0;orthogonalLoop=1;jettySize=auto;html=1;exitX=0.5;exitY=1;exitDx=0;exitDy=0;entryX=0.5;entryY=0;entryDx=0;entryDy=0;" parent="1" source="66rpXsQytvQjwjU0PG5K-3" target="66rpXsQytvQjwjU0PG5K-6" edge="1">
          <mxGeometry relative="1" as="geometry" />
        </mxCell>
        <mxCell id="66rpXsQytvQjwjU0PG5K-3" value="Create New Order" style="rounded=1;whiteSpace=wrap;html=1;arcSize=40;fontColor=#000000;fillColor=#ffffc0;strokeColor=#ff0000;" parent="1" vertex="1">
          <mxGeometry x="240" y="186" width="120" height="40" as="geometry" />
        </mxCell>
        <mxCell id="66rpXsQytvQjwjU0PG5K-13" style="edgeStyle=orthogonalEdgeStyle;rounded=0;orthogonalLoop=1;jettySize=auto;html=1;exitX=0.5;exitY=1;exitDx=0;exitDy=0;entryX=0.5;entryY=0;entryDx=0;entryDy=0;" parent="1" source="66rpXsQytvQjwjU0PG5K-6" target="QZX1xgMGE7__ZEkgKmhv-1" edge="1">
          <mxGeometry relative="1" as="geometry">
            <mxPoint x="300" y="360" as="targetPoint" />
          </mxGeometry>
        </mxCell>
        <mxCell id="66rpXsQytvQjwjU0PG5K-42" style="edgeStyle=orthogonalEdgeStyle;rounded=0;orthogonalLoop=1;jettySize=auto;html=1;exitX=1;exitY=0.5;exitDx=0;exitDy=0;" parent="1" source="66rpXsQytvQjwjU0PG5K-6" edge="1">
          <mxGeometry relative="1" as="geometry">
            <mxPoint x="300" y="246" as="targetPoint" />
          </mxGeometry>
        </mxCell>
        <mxCell id="66rpXsQytvQjwjU0PG5K-6" value="Select CustomerID" style="rhombus;whiteSpace=wrap;html=1;fontColor=#000000;fillColor=#ffffc0;strokeColor=#ff0000;" parent="1" vertex="1">
          <mxGeometry x="250" y="266" width="100" height="80" as="geometry" />
        </mxCell>
        <mxCell id="r9hb-kDLk_rOFmMnVxTr-7" style="edgeStyle=orthogonalEdgeStyle;rounded=0;orthogonalLoop=1;jettySize=auto;html=1;exitX=0.5;exitY=1;exitDx=0;exitDy=0;entryX=0.5;entryY=0;entryDx=0;entryDy=0;" parent="1" source="66rpXsQytvQjwjU0PG5K-17" target="r9hb-kDLk_rOFmMnVxTr-3" edge="1">
          <mxGeometry relative="1" as="geometry" />
        </mxCell>
        <mxCell id="66rpXsQytvQjwjU0PG5K-17" value="create invoice" style="rounded=1;whiteSpace=wrap;html=1;arcSize=40;fontColor=#000000;fillColor=#ffffc0;strokeColor=#ff0000;" parent="1" vertex="1">
          <mxGeometry x="240" y="720" width="120" height="40" as="geometry" />
        </mxCell>
        <mxCell id="r9hb-kDLk_rOFmMnVxTr-14" style="edgeStyle=orthogonalEdgeStyle;rounded=0;orthogonalLoop=1;jettySize=auto;html=1;exitX=0.5;exitY=1;exitDx=0;exitDy=0;entryX=0.892;entryY=0.1;entryDx=0;entryDy=0;entryPerimeter=0;" parent="1" source="66rpXsQytvQjwjU0PG5K-20" target="66rpXsQytvQjwjU0PG5K-25" edge="1">
          <mxGeometry relative="1" as="geometry">
            <Array as="points">
              <mxPoint x="403" y="910" />
            </Array>
          </mxGeometry>
        </mxCell>
        <mxCell id="66rpXsQytvQjwjU0PG5K-20" value="show message&lt;br&gt;&quot;Order created successfully!&quot;" style="rounded=1;whiteSpace=wrap;html=1;arcSize=40;fontColor=#000000;fillColor=#ffffc0;strokeColor=#ff0000;" parent="1" vertex="1">
          <mxGeometry x="345" y="870" width="120" height="40" as="geometry" />
        </mxCell>
        <mxCell id="66rpXsQytvQjwjU0PG5K-79" value="" style="edgeStyle=orthogonalEdgeStyle;rounded=0;orthogonalLoop=1;jettySize=auto;html=1;" parent="1" source="66rpXsQytvQjwjU0PG5K-25" target="66rpXsQytvQjwjU0PG5K-34" edge="1">
          <mxGeometry relative="1" as="geometry" />
        </mxCell>
        <mxCell id="66rpXsQytvQjwjU0PG5K-25" value="" style="shape=line;html=1;strokeWidth=6;strokeColor=#ff0000;" parent="1" vertex="1">
          <mxGeometry x="100" y="980" width="340" height="10" as="geometry" />
        </mxCell>
        <mxCell id="66rpXsQytvQjwjU0PG5K-34" value="" style="ellipse;html=1;shape=endState;fillColor=#000000;strokeColor=#ff0000;" parent="1" vertex="1">
          <mxGeometry x="255" y="1070" width="30" height="30" as="geometry" />
        </mxCell>
        <mxCell id="66rpXsQytvQjwjU0PG5K-36" value="[id]" style="text;align=center;fontStyle=1;verticalAlign=middle;spacingLeft=3;spacingRight=3;strokeColor=none;rotatable=0;points=[[0,0.5],[1,0.5]];portConstraint=eastwest;html=1;" parent="1" vertex="1">
          <mxGeometry x="280" y="346" width="80" height="26" as="geometry" />
        </mxCell>
        <mxCell id="66rpXsQytvQjwjU0PG5K-37" value="[not id]" style="text;align=center;fontStyle=1;verticalAlign=middle;spacingLeft=3;spacingRight=3;strokeColor=none;rotatable=0;points=[[0,0.5],[1,0.5]];portConstraint=eastwest;html=1;" parent="1" vertex="1">
          <mxGeometry x="360" y="256" width="80" height="26" as="geometry" />
        </mxCell>
        <mxCell id="66rpXsQytvQjwjU0PG5K-76" style="edgeStyle=orthogonalEdgeStyle;rounded=0;orthogonalLoop=1;jettySize=auto;html=1;exitX=0.5;exitY=1;exitDx=0;exitDy=0;entryX=0.5;entryY=0;entryDx=0;entryDy=0;" parent="1" source="66rpXsQytvQjwjU0PG5K-67" target="QZX1xgMGE7__ZEkgKmhv-7" edge="1">
          <mxGeometry relative="1" as="geometry">
            <mxPoint x="300" y="600" as="targetPoint" />
          </mxGeometry>
        </mxCell>
        <mxCell id="66rpXsQytvQjwjU0PG5K-67" value="input quantity" style="rhombus;whiteSpace=wrap;html=1;fontColor=#000000;fillColor=#ffffc0;strokeColor=#ff0000;" parent="1" vertex="1">
          <mxGeometry x="260" y="511" width="80" height="70" as="geometry" />
        </mxCell>
        <mxCell id="r9hb-kDLk_rOFmMnVxTr-6" style="edgeStyle=orthogonalEdgeStyle;rounded=0;orthogonalLoop=1;jettySize=auto;html=1;exitX=1;exitY=0.5;exitDx=0;exitDy=0;" parent="1" source="r9hb-kDLk_rOFmMnVxTr-3" target="66rpXsQytvQjwjU0PG5K-20" edge="1">
          <mxGeometry relative="1" as="geometry" />
        </mxCell>
        <mxCell id="r9hb-kDLk_rOFmMnVxTr-10" style="edgeStyle=orthogonalEdgeStyle;rounded=0;orthogonalLoop=1;jettySize=auto;html=1;exitX=0;exitY=0.5;exitDx=0;exitDy=0;entryX=0.5;entryY=0;entryDx=0;entryDy=0;" parent="1" source="r9hb-kDLk_rOFmMnVxTr-3" target="r9hb-kDLk_rOFmMnVxTr-8" edge="1">
          <mxGeometry relative="1" as="geometry" />
        </mxCell>
        <mxCell id="r9hb-kDLk_rOFmMnVxTr-3" value="" style="rhombus;whiteSpace=wrap;html=1;fontColor=#000000;fillColor=#ffffc0;strokeColor=#ff0000;" parent="1" vertex="1">
          <mxGeometry x="260" y="810" width="80" height="40" as="geometry" />
        </mxCell>
        <mxCell id="r9hb-kDLk_rOFmMnVxTr-13" style="edgeStyle=orthogonalEdgeStyle;rounded=0;orthogonalLoop=1;jettySize=auto;html=1;exitX=0.5;exitY=1;exitDx=0;exitDy=0;entryX=0.315;entryY=0.18;entryDx=0;entryDy=0;entryPerimeter=0;" parent="1" source="r9hb-kDLk_rOFmMnVxTr-8" target="66rpXsQytvQjwjU0PG5K-25" edge="1">
          <mxGeometry relative="1" as="geometry">
            <Array as="points">
              <mxPoint x="207" y="910" />
            </Array>
          </mxGeometry>
        </mxCell>
        <mxCell id="r9hb-kDLk_rOFmMnVxTr-8" value="show message&lt;br style=&quot;border-color: var(--border-color);&quot;&gt;&quot;Order created not successfully!&quot;" style="rounded=1;whiteSpace=wrap;html=1;arcSize=40;fontColor=#000000;fillColor=#ffffc0;strokeColor=#ff0000;" parent="1" vertex="1">
          <mxGeometry x="150" y="870" width="120" height="40" as="geometry" />
        </mxCell>
        <mxCell id="r9hb-kDLk_rOFmMnVxTr-11" value="[not complete]" style="text;align=center;fontStyle=1;verticalAlign=middle;spacingLeft=3;spacingRight=3;strokeColor=none;rotatable=0;points=[[0,0.5],[1,0.5]];portConstraint=eastwest;html=1;" parent="1" vertex="1">
          <mxGeometry x="160" y="800" width="80" height="26" as="geometry" />
        </mxCell>
        <mxCell id="r9hb-kDLk_rOFmMnVxTr-12" value="[complete]" style="text;align=center;fontStyle=1;verticalAlign=middle;spacingLeft=3;spacingRight=3;strokeColor=none;rotatable=0;points=[[0,0.5],[1,0.5]];portConstraint=eastwest;html=1;" parent="1" vertex="1">
          <mxGeometry x="350" y="800" width="80" height="26" as="geometry" />
        </mxCell>
        <mxCell id="QZX1xgMGE7__ZEkgKmhv-3" style="edgeStyle=orthogonalEdgeStyle;rounded=0;orthogonalLoop=1;jettySize=auto;html=1;exitX=0.5;exitY=1;exitDx=0;exitDy=0;entryX=0.5;entryY=0;entryDx=0;entryDy=0;" parent="1" source="QZX1xgMGE7__ZEkgKmhv-1" target="66rpXsQytvQjwjU0PG5K-67" edge="1">
          <mxGeometry relative="1" as="geometry" />
        </mxCell>
        <mxCell id="QZX1xgMGE7__ZEkgKmhv-11" style="edgeStyle=orthogonalEdgeStyle;rounded=0;orthogonalLoop=1;jettySize=auto;html=1;exitX=1;exitY=0.5;exitDx=0;exitDy=0;" parent="1" source="QZX1xgMGE7__ZEkgKmhv-1" edge="1">
          <mxGeometry relative="1" as="geometry">
            <mxPoint x="300" y="380" as="targetPoint" />
          </mxGeometry>
        </mxCell>
        <mxCell id="QZX1xgMGE7__ZEkgKmhv-1" value="Select TobaccoID" style="rhombus;whiteSpace=wrap;html=1;fontColor=#000000;fillColor=#ffffc0;strokeColor=#ff0000;" parent="1" vertex="1">
          <mxGeometry x="255" y="400" width="90" height="70" as="geometry" />
        </mxCell>
        <mxCell id="QZX1xgMGE7__ZEkgKmhv-4" value="[not id]" style="text;whiteSpace=wrap;html=1;" parent="1" vertex="1">
          <mxGeometry x="370" y="390" width="70" height="40" as="geometry" />
        </mxCell>
        <mxCell id="QZX1xgMGE7__ZEkgKmhv-6" value="[id]" style="text;align=center;fontStyle=1;verticalAlign=middle;spacingLeft=3;spacingRight=3;strokeColor=none;rotatable=0;points=[[0,0.5],[1,0.5]];portConstraint=eastwest;html=1;" parent="1" vertex="1">
          <mxGeometry x="290" y="474" width="80" height="26" as="geometry" />
        </mxCell>
        <mxCell id="QZX1xgMGE7__ZEkgKmhv-10" style="edgeStyle=orthogonalEdgeStyle;rounded=0;orthogonalLoop=1;jettySize=auto;html=1;exitX=0;exitY=0.5;exitDx=0;exitDy=0;" parent="1" source="QZX1xgMGE7__ZEkgKmhv-7" edge="1">
          <mxGeometry relative="1" as="geometry">
            <mxPoint x="300" y="370" as="targetPoint" />
            <Array as="points">
              <mxPoint x="230" y="645" />
              <mxPoint x="230" y="370" />
            </Array>
          </mxGeometry>
        </mxCell>
        <mxCell id="QZX1xgMGE7__ZEkgKmhv-13" style="edgeStyle=orthogonalEdgeStyle;rounded=0;orthogonalLoop=1;jettySize=auto;html=1;exitX=0.5;exitY=1;exitDx=0;exitDy=0;entryX=0.5;entryY=0;entryDx=0;entryDy=0;" parent="1" source="QZX1xgMGE7__ZEkgKmhv-7" target="66rpXsQytvQjwjU0PG5K-17" edge="1">
          <mxGeometry relative="1" as="geometry" />
        </mxCell>
        <mxCell id="QZX1xgMGE7__ZEkgKmhv-7" value="&amp;nbsp;add more products" style="rhombus;whiteSpace=wrap;html=1;fontColor=#000000;fillColor=#ffffc0;strokeColor=#ff0000;" parent="1" vertex="1">
          <mxGeometry x="250" y="610" width="100" height="70" as="geometry" />
        </mxCell>
        <mxCell id="QZX1xgMGE7__ZEkgKmhv-12" value="[yes]" style="text;align=center;fontStyle=1;verticalAlign=middle;spacingLeft=3;spacingRight=3;strokeColor=none;rotatable=0;points=[[0,0.5],[1,0.5]];portConstraint=eastwest;html=1;" parent="1" vertex="1">
          <mxGeometry x="160" y="448" width="80" height="26" as="geometry" />
        </mxCell>
        <mxCell id="QZX1xgMGE7__ZEkgKmhv-14" value="[no]" style="text;whiteSpace=wrap;html=1;" parent="1" vertex="1">
          <mxGeometry x="270" y="680" width="50" height="40" as="geometry" />
        </mxCell>
      </root>
    </mxGraphModel>
  </diagram>
  <diagram id="Y7kIUDa3O-Aw6U_36Hyc" name="Page-2">
    <mxGraphModel dx="1036" dy="606" grid="1" gridSize="10" guides="1" tooltips="1" connect="1" arrows="1" fold="1" page="1" pageScale="1" pageWidth="850" pageHeight="1100" math="0" shadow="0">
      <root>
        <mxCell id="0" />
        <mxCell id="1" parent="0" />
        <mxCell id="QwA7FY_Ts3xXY3UtmHPp-1" value="003-Create&amp;nbsp;Order" style="shape=umlFrame;whiteSpace=wrap;html=1;pointerEvents=0;width=80;height=40;" vertex="1" parent="1">
          <mxGeometry x="30" y="30" width="770" height="990" as="geometry" />
        </mxCell>
        <mxCell id="QwA7FY_Ts3xXY3UtmHPp-2" style="edgeStyle=orthogonalEdgeStyle;rounded=0;orthogonalLoop=1;jettySize=auto;html=1;exitX=0.5;exitY=0.5;exitDx=0;exitDy=0;exitPerimeter=0;entryX=0.507;entryY=0.567;entryDx=0;entryDy=0;entryPerimeter=0;endArrow=none;endFill=0;dashed=1;" edge="1" parent="1" source="QwA7FY_Ts3xXY3UtmHPp-3" target="QwA7FY_Ts3xXY3UtmHPp-14">
          <mxGeometry relative="1" as="geometry">
            <Array as="points">
              <mxPoint x="125" y="230" />
              <mxPoint x="125" y="230" />
            </Array>
          </mxGeometry>
        </mxCell>
        <mxCell id="QwA7FY_Ts3xXY3UtmHPp-3" value="Staff" style="shape=umlActor;verticalLabelPosition=bottom;verticalAlign=top;html=1;" vertex="1" parent="1">
          <mxGeometry x="110" y="80" width="30" height="60" as="geometry" />
        </mxCell>
        <mxCell id="QwA7FY_Ts3xXY3UtmHPp-4" style="edgeStyle=orthogonalEdgeStyle;rounded=0;orthogonalLoop=1;jettySize=auto;html=1;entryX=0.5;entryY=0;entryDx=0;entryDy=0;entryPerimeter=0;endArrow=none;endFill=0;dashed=1;" edge="1" parent="1" source="QwA7FY_Ts3xXY3UtmHPp-5" target="QwA7FY_Ts3xXY3UtmHPp-15">
          <mxGeometry relative="1" as="geometry" />
        </mxCell>
        <mxCell id="QwA7FY_Ts3xXY3UtmHPp-5" value="Program" style="html=1;whiteSpace=wrap;" vertex="1" parent="1">
          <mxGeometry x="190" y="90" width="90" height="30" as="geometry" />
        </mxCell>
        <mxCell id="QwA7FY_Ts3xXY3UtmHPp-6" style="edgeStyle=orthogonalEdgeStyle;rounded=0;orthogonalLoop=1;jettySize=auto;html=1;entryX=0.5;entryY=0;entryDx=0;entryDy=0;entryPerimeter=0;endArrow=none;endFill=0;dashed=1;" edge="1" parent="1" source="QwA7FY_Ts3xXY3UtmHPp-7" target="QwA7FY_Ts3xXY3UtmHPp-17">
          <mxGeometry relative="1" as="geometry" />
        </mxCell>
        <mxCell id="QwA7FY_Ts3xXY3UtmHPp-7" value="Staff" style="html=1;whiteSpace=wrap;" vertex="1" parent="1">
          <mxGeometry x="310" y="90" width="90" height="30" as="geometry" />
        </mxCell>
        <mxCell id="QwA7FY_Ts3xXY3UtmHPp-8" style="edgeStyle=orthogonalEdgeStyle;rounded=0;orthogonalLoop=1;jettySize=auto;html=1;exitX=0.5;exitY=1;exitDx=0;exitDy=0;entryX=0.4;entryY=0.005;entryDx=0;entryDy=0;entryPerimeter=0;endArrow=none;endFill=0;dashed=1;" edge="1" parent="1" source="QwA7FY_Ts3xXY3UtmHPp-9" target="QwA7FY_Ts3xXY3UtmHPp-19">
          <mxGeometry relative="1" as="geometry" />
        </mxCell>
        <mxCell id="QwA7FY_Ts3xXY3UtmHPp-9" value="OrderBL" style="html=1;whiteSpace=wrap;" vertex="1" parent="1">
          <mxGeometry x="430" y="90" width="90" height="30" as="geometry" />
        </mxCell>
        <mxCell id="QwA7FY_Ts3xXY3UtmHPp-10" style="edgeStyle=orthogonalEdgeStyle;rounded=0;orthogonalLoop=1;jettySize=auto;html=1;endArrow=none;endFill=0;dashed=1;entryX=0.36;entryY=-0.006;entryDx=0;entryDy=0;entryPerimeter=0;" edge="1" parent="1" source="QwA7FY_Ts3xXY3UtmHPp-11" target="QwA7FY_Ts3xXY3UtmHPp-21">
          <mxGeometry relative="1" as="geometry">
            <Array as="points" />
          </mxGeometry>
        </mxCell>
        <mxCell id="QwA7FY_Ts3xXY3UtmHPp-11" value="OrderDAL" style="html=1;whiteSpace=wrap;" vertex="1" parent="1">
          <mxGeometry x="550" y="90" width="90" height="30" as="geometry" />
        </mxCell>
        <mxCell id="QwA7FY_Ts3xXY3UtmHPp-12" style="edgeStyle=orthogonalEdgeStyle;rounded=0;orthogonalLoop=1;jettySize=auto;html=1;exitX=0.5;exitY=1;exitDx=0;exitDy=0;exitPerimeter=0;entryX=0.553;entryY=0.487;entryDx=0;entryDy=0;entryPerimeter=0;endArrow=none;endFill=0;dashed=1;" edge="1" parent="1" source="QwA7FY_Ts3xXY3UtmHPp-13" target="QwA7FY_Ts3xXY3UtmHPp-18">
          <mxGeometry relative="1" as="geometry">
            <Array as="points">
              <mxPoint x="740" y="985" />
            </Array>
          </mxGeometry>
        </mxCell>
        <mxCell id="QwA7FY_Ts3xXY3UtmHPp-13" value="DB" style="strokeWidth=2;html=1;shape=mxgraph.flowchart.database;whiteSpace=wrap;" vertex="1" parent="1">
          <mxGeometry x="710" y="80" width="60" height="60" as="geometry" />
        </mxCell>
        <mxCell id="QwA7FY_Ts3xXY3UtmHPp-14" value="" style="shape=umlDestroy;whiteSpace=wrap;html=1;strokeWidth=3;targetShapes=umlLifeline;" vertex="1" parent="1">
          <mxGeometry x="110" y="970" width="30" height="30" as="geometry" />
        </mxCell>
        <mxCell id="QwA7FY_Ts3xXY3UtmHPp-15" value="" style="html=1;points=[];perimeter=orthogonalPerimeter;outlineConnect=0;targetShapes=umlLifeline;portConstraint=eastwest;newEdgeStyle={&quot;edgeStyle&quot;:&quot;elbowEdgeStyle&quot;,&quot;elbow&quot;:&quot;vertical&quot;,&quot;curved&quot;:0,&quot;rounded&quot;:0};" vertex="1" parent="1">
          <mxGeometry x="230" y="170" width="10" height="790" as="geometry" />
        </mxCell>
        <mxCell id="QwA7FY_Ts3xXY3UtmHPp-17" value="" style="html=1;points=[];perimeter=orthogonalPerimeter;outlineConnect=0;targetShapes=umlLifeline;portConstraint=eastwest;newEdgeStyle={&quot;edgeStyle&quot;:&quot;elbowEdgeStyle&quot;,&quot;elbow&quot;:&quot;vertical&quot;,&quot;curved&quot;:0,&quot;rounded&quot;:0};fillColor=#999999;" vertex="1" parent="1">
          <mxGeometry x="350" y="180" width="10" height="90" as="geometry" />
        </mxCell>
        <mxCell id="QwA7FY_Ts3xXY3UtmHPp-18" value="" style="shape=umlDestroy;whiteSpace=wrap;html=1;strokeWidth=3;targetShapes=umlLifeline;" vertex="1" parent="1">
          <mxGeometry x="725" y="970" width="30" height="30" as="geometry" />
        </mxCell>
        <mxCell id="QwA7FY_Ts3xXY3UtmHPp-19" value="" style="html=1;points=[];perimeter=orthogonalPerimeter;outlineConnect=0;targetShapes=umlLifeline;portConstraint=eastwest;newEdgeStyle={&quot;edgeStyle&quot;:&quot;elbowEdgeStyle&quot;,&quot;elbow&quot;:&quot;vertical&quot;,&quot;curved&quot;:0,&quot;rounded&quot;:0};fillColor=#666666;" vertex="1" parent="1">
          <mxGeometry x="470" y="660" width="10" height="95" as="geometry" />
        </mxCell>
        <mxCell id="QwA7FY_Ts3xXY3UtmHPp-20" value="NewOrderBL()" style="html=1;verticalAlign=bottom;endArrow=block;edgeStyle=elbowEdgeStyle;elbow=vertical;curved=0;rounded=0;exitX=1;exitY=0.443;exitDx=0;exitDy=0;exitPerimeter=0;" edge="1" parent="1">
          <mxGeometry width="80" relative="1" as="geometry">
            <mxPoint x="240" y="670" as="sourcePoint" />
            <mxPoint x="470" y="670.39" as="targetPoint" />
          </mxGeometry>
        </mxCell>
        <mxCell id="QwA7FY_Ts3xXY3UtmHPp-21" value="" style="html=1;points=[];perimeter=orthogonalPerimeter;outlineConnect=0;targetShapes=umlLifeline;portConstraint=eastwest;newEdgeStyle={&quot;edgeStyle&quot;:&quot;elbowEdgeStyle&quot;,&quot;elbow&quot;:&quot;vertical&quot;,&quot;curved&quot;:0,&quot;rounded&quot;:0};fillColor=#FFFFFF;" vertex="1" parent="1">
          <mxGeometry x="590" y="667.5" width="10" height="80" as="geometry" />
        </mxCell>
        <mxCell id="QwA7FY_Ts3xXY3UtmHPp-22" value="CreateOrder()" style="html=1;verticalAlign=bottom;endArrow=block;edgeStyle=elbowEdgeStyle;elbow=vertical;curved=0;rounded=0;entryX=0;entryY=0.143;entryDx=0;entryDy=0;entryPerimeter=0;" edge="1" parent="1" target="QwA7FY_Ts3xXY3UtmHPp-21">
          <mxGeometry width="80" relative="1" as="geometry">
            <mxPoint x="480" y="679" as="sourcePoint" />
            <mxPoint x="530" y="677.5" as="targetPoint" />
          </mxGeometry>
        </mxCell>
        <mxCell id="QwA7FY_Ts3xXY3UtmHPp-23" value="CreateOrder()" style="html=1;verticalAlign=bottom;endArrow=block;edgeStyle=elbowEdgeStyle;elbow=horizontal;curved=0;rounded=0;" edge="1" parent="1">
          <mxGeometry x="-0.2857" width="80" relative="1" as="geometry">
            <mxPoint x="600" y="690" as="sourcePoint" />
            <mxPoint x="740" y="690" as="targetPoint" />
            <mxPoint as="offset" />
          </mxGeometry>
        </mxCell>
        <mxCell id="QwA7FY_Ts3xXY3UtmHPp-24" value="" style="html=1;verticalAlign=bottom;endArrow=none;edgeStyle=elbowEdgeStyle;elbow=vertical;curved=0;rounded=0;startArrow=block;startFill=1;endFill=0;" edge="1" parent="1" source="QwA7FY_Ts3xXY3UtmHPp-21">
          <mxGeometry width="80" relative="1" as="geometry">
            <mxPoint x="710" y="712.5" as="sourcePoint" />
            <mxPoint x="740" y="730" as="targetPoint" />
            <Array as="points">
              <mxPoint x="690" y="730" />
            </Array>
          </mxGeometry>
        </mxCell>
        <mxCell id="QwA7FY_Ts3xXY3UtmHPp-25" value="" style="html=1;verticalAlign=bottom;endArrow=none;edgeStyle=elbowEdgeStyle;elbow=vertical;curved=0;rounded=0;startArrow=block;startFill=1;endFill=0;" edge="1" parent="1">
          <mxGeometry width="80" relative="1" as="geometry">
            <mxPoint x="480" y="737" as="sourcePoint" />
            <mxPoint x="590" y="736.5" as="targetPoint" />
          </mxGeometry>
        </mxCell>
        <mxCell id="QwA7FY_Ts3xXY3UtmHPp-26" value="" style="html=1;verticalAlign=bottom;endArrow=none;edgeStyle=elbowEdgeStyle;elbow=vertical;curved=0;rounded=0;exitX=1;exitY=0.443;exitDx=0;exitDy=0;exitPerimeter=0;endFill=0;startArrow=block;startFill=1;" edge="1" parent="1">
          <mxGeometry width="80" relative="1" as="geometry">
            <mxPoint x="240" y="740" as="sourcePoint" />
            <mxPoint x="470" y="740" as="targetPoint" />
          </mxGeometry>
        </mxCell>
        <mxCell id="QwA7FY_Ts3xXY3UtmHPp-27" value="" style="endArrow=classic;html=1;rounded=0;" edge="1" parent="1">
          <mxGeometry relative="1" as="geometry">
            <mxPoint x="240" y="755" as="sourcePoint" />
            <mxPoint x="240" y="815" as="targetPoint" />
            <Array as="points">
              <mxPoint x="270" y="755" />
              <mxPoint x="270" y="815" />
              <mxPoint x="260" y="815" />
            </Array>
          </mxGeometry>
        </mxCell>
        <mxCell id="QwA7FY_Ts3xXY3UtmHPp-28" value="msg create&amp;nbsp;order not complete" style="edgeLabel;resizable=0;html=1;align=center;verticalAlign=middle;" connectable="0" vertex="1" parent="QwA7FY_Ts3xXY3UtmHPp-27">
          <mxGeometry relative="1" as="geometry">
            <mxPoint x="50" as="offset" />
          </mxGeometry>
        </mxCell>
        <mxCell id="QwA7FY_Ts3xXY3UtmHPp-29" value="" style="endArrow=classic;html=1;rounded=0;" edge="1" parent="1">
          <mxGeometry relative="1" as="geometry">
            <mxPoint x="240" y="840" as="sourcePoint" />
            <mxPoint x="240" y="900" as="targetPoint" />
            <Array as="points">
              <mxPoint x="270" y="840" />
              <mxPoint x="270" y="900" />
              <mxPoint x="260" y="900" />
            </Array>
          </mxGeometry>
        </mxCell>
        <mxCell id="QwA7FY_Ts3xXY3UtmHPp-30" value="msg create&amp;nbsp;order complete" style="edgeLabel;resizable=0;html=1;align=center;verticalAlign=middle;" connectable="0" vertex="1" parent="QwA7FY_Ts3xXY3UtmHPp-29">
          <mxGeometry relative="1" as="geometry">
            <mxPoint x="40" as="offset" />
          </mxGeometry>
        </mxCell>
        <mxCell id="QwA7FY_Ts3xXY3UtmHPp-31" value="ref" style="shape=umlFrame;whiteSpace=wrap;html=1;pointerEvents=0;" vertex="1" parent="1">
          <mxGeometry x="100" y="190" width="280" height="70" as="geometry" />
        </mxCell>
        <mxCell id="QwA7FY_Ts3xXY3UtmHPp-32" value="alt" style="shape=umlFrame;whiteSpace=wrap;html=1;pointerEvents=0;" vertex="1" parent="1">
          <mxGeometry x="80" y="705" width="680" height="205" as="geometry" />
        </mxCell>
        <mxCell id="QwA7FY_Ts3xXY3UtmHPp-36" value="[result false]" style="text;html=1;strokeColor=none;fillColor=none;align=center;verticalAlign=middle;whiteSpace=wrap;rounded=0;" vertex="1" parent="1">
          <mxGeometry x="150" y="770" width="60" height="30" as="geometry" />
        </mxCell>
        <mxCell id="QwA7FY_Ts3xXY3UtmHPp-37" value="[result true]" style="text;html=1;strokeColor=none;fillColor=none;align=center;verticalAlign=middle;whiteSpace=wrap;rounded=0;" vertex="1" parent="1">
          <mxGeometry x="150" y="850" width="60" height="30" as="geometry" />
        </mxCell>
        <mxCell id="QwA7FY_Ts3xXY3UtmHPp-38" value="001-Login" style="text;html=1;strokeColor=none;fillColor=none;align=center;verticalAlign=middle;whiteSpace=wrap;rounded=0;" vertex="1" parent="1">
          <mxGeometry x="160" y="210" width="60" height="30" as="geometry" />
        </mxCell>
        <mxCell id="QwA7FY_Ts3xXY3UtmHPp-40" value="invalid" style="text;html=1;strokeColor=none;fillColor=none;align=center;verticalAlign=middle;whiteSpace=wrap;rounded=0;" vertex="1" parent="1">
          <mxGeometry x="140" y="340" width="60" height="30" as="geometry" />
        </mxCell>
        <mxCell id="QwA7FY_Ts3xXY3UtmHPp-43" value="Loop" style="shape=umlFrame;whiteSpace=wrap;html=1;pointerEvents=0;" vertex="1" parent="1">
          <mxGeometry x="80" y="270" width="320" height="120" as="geometry" />
        </mxCell>
        <mxCell id="QwA7FY_Ts3xXY3UtmHPp-45" value="input custmer id" style="html=1;verticalAlign=bottom;endArrow=block;edgeStyle=elbowEdgeStyle;elbow=horizontal;curved=0;rounded=0;" edge="1" parent="1">
          <mxGeometry width="80" relative="1" as="geometry">
            <mxPoint x="130" y="310" as="sourcePoint" />
            <mxPoint x="230" y="310" as="targetPoint" />
          </mxGeometry>
        </mxCell>
        <mxCell id="QwA7FY_Ts3xXY3UtmHPp-46" value="" style="endArrow=classic;html=1;rounded=0;" edge="1" parent="1">
          <mxGeometry relative="1" as="geometry">
            <mxPoint x="240" y="320" as="sourcePoint" />
            <mxPoint x="240" y="380" as="targetPoint" />
            <Array as="points">
              <mxPoint x="270" y="320" />
              <mxPoint x="270" y="380" />
              <mxPoint x="260" y="380" />
            </Array>
          </mxGeometry>
        </mxCell>
        <mxCell id="QwA7FY_Ts3xXY3UtmHPp-47" value="error Id" style="edgeLabel;resizable=0;html=1;align=center;verticalAlign=middle;" connectable="0" vertex="1" parent="QwA7FY_Ts3xXY3UtmHPp-46">
          <mxGeometry relative="1" as="geometry">
            <mxPoint x="30" as="offset" />
          </mxGeometry>
        </mxCell>
        <mxCell id="QwA7FY_Ts3xXY3UtmHPp-48" value="ref" style="shape=umlFrame;whiteSpace=wrap;html=1;pointerEvents=0;" vertex="1" parent="1">
          <mxGeometry x="100" y="420" width="280" height="70" as="geometry" />
        </mxCell>
        <mxCell id="QwA7FY_Ts3xXY3UtmHPp-49" value="search by id" style="text;html=1;strokeColor=none;fillColor=none;align=center;verticalAlign=middle;whiteSpace=wrap;rounded=0;" vertex="1" parent="1">
          <mxGeometry x="160" y="440" width="60" height="30" as="geometry" />
        </mxCell>
        <mxCell id="QwA7FY_Ts3xXY3UtmHPp-50" value="invalid" style="text;html=1;strokeColor=none;fillColor=none;align=center;verticalAlign=middle;whiteSpace=wrap;rounded=0;" vertex="1" parent="1">
          <mxGeometry x="140" y="580" width="60" height="30" as="geometry" />
        </mxCell>
        <mxCell id="QwA7FY_Ts3xXY3UtmHPp-51" value="Loop" style="shape=umlFrame;whiteSpace=wrap;html=1;pointerEvents=0;" vertex="1" parent="1">
          <mxGeometry x="80" y="500" width="320" height="120" as="geometry" />
        </mxCell>
        <mxCell id="QwA7FY_Ts3xXY3UtmHPp-52" value="input quantity" style="html=1;verticalAlign=bottom;endArrow=block;edgeStyle=elbowEdgeStyle;elbow=horizontal;curved=0;rounded=0;" edge="1" parent="1">
          <mxGeometry width="80" relative="1" as="geometry">
            <mxPoint x="130" y="540" as="sourcePoint" />
            <mxPoint x="230" y="540" as="targetPoint" />
          </mxGeometry>
        </mxCell>
        <mxCell id="QwA7FY_Ts3xXY3UtmHPp-53" value="" style="endArrow=classic;html=1;rounded=0;" edge="1" parent="1">
          <mxGeometry relative="1" as="geometry">
            <mxPoint x="240" y="550" as="sourcePoint" />
            <mxPoint x="240" y="610" as="targetPoint" />
            <Array as="points">
              <mxPoint x="270" y="550" />
              <mxPoint x="270" y="610" />
              <mxPoint x="260" y="610" />
            </Array>
          </mxGeometry>
        </mxCell>
        <mxCell id="QwA7FY_Ts3xXY3UtmHPp-54" value="error&amp;nbsp; enterd&amp;nbsp;wrong quantity" style="edgeLabel;resizable=0;html=1;align=center;verticalAlign=middle;" connectable="0" vertex="1" parent="QwA7FY_Ts3xXY3UtmHPp-53">
          <mxGeometry relative="1" as="geometry">
            <mxPoint x="40" as="offset" />
          </mxGeometry>
        </mxCell>
        <mxCell id="QwA7FY_Ts3xXY3UtmHPp-55" value="Loop(id !=0)" style="shape=umlFrame;whiteSpace=wrap;html=1;pointerEvents=0;" vertex="1" parent="1">
          <mxGeometry x="40" y="400" width="380" height="240" as="geometry" />
        </mxCell>
      </root>
    </mxGraphModel>
  </diagram>
</mxfile>
